<?xml version="1.0" encoding="UTF-8"?>
<svg width="128" height="128" viewBox="0 0 128 128" xmlns="http://www.w3.org/2000/svg">
  <!-- Background circle -->
  <circle cx="64" cy="64" r="60" fill="#667eea" stroke="#764ba2" stroke-width="2"/>
  
  <!-- Shield shape -->
  <path d="M64 15 L45 25 L45 55 Q45 75 64 95 Q83 75 83 55 L83 25 Z" 
        fill="#ffffff" stroke="#333333" stroke-width="1.5"/>
  
  <!-- Inner shield pattern -->
  <path d="M64 25 L50 32 L50 55 Q50 70 64 85 Q78 70 78 55 L78 32 Z" 
        fill="#f8f9fa" stroke="#667eea" stroke-width="1"/>
  
  <!-- Checkmark -->
  <path d="M57 55 L62 60 L72 45" 
        fill="none" stroke="#28a745" stroke-width="3" stroke-linecap="round" stroke-linejoin="round"/>
  
  <!-- AI circuit pattern -->
  <circle cx="64" cy="40" r="2" fill="#007bff"/>
  <circle cx="58" cy="45" r="1.5" fill="#007bff"/>
  <circle cx="70" cy="45" r="1.5" fill="#007bff"/>
  <line x1="64" y1="42" x2="58" y2="45" stroke="#007bff" stroke-width="1"/>
  <line x1="64" y1="42" x2="70" y2="45" stroke="#007bff" stroke-width="1"/>
  
  <!-- Email envelope at bottom -->
  <rect x="52" y="100" width="24" height="16" rx="2" fill="#6c757d" stroke="#495057" stroke-width="1"/>
  <path d="M52 100 L64 108 L76 100" fill="none" stroke="#495057" stroke-width="1"/>
  
  <!-- Warning indicator -->
  <circle cx="74" cy="102" r="6" fill="#dc3545"/>
  <path d="M74 99 L74 103 M74 105 L74 105" stroke="#ffffff" stroke-width="1.5" stroke-linecap="round"/>
</svg>